<svg version="1" xmlns="http://www.w3.org/2000/svg" width="682.667" height="682.667" viewBox="0 0 512.000000 512.000000"><path d="M211.9 1.9c-4.3 3.3-4.3 5.8.2 23.3 3 11.8 4.3 19.1 4.6 26.3.7 14.3-1.1 20.7-11 38.5-7.4 13.4-10.5 28.9-8.8 43 1 7.7 5 23.7 10.7 42.7 2.1 7.1 2.9 8.5 5.5 9.9 5.8 3 11.9-.8 11.9-7.4 0-2-2.5-12.4-5.5-23.1-4.8-16.7-5.5-20.5-5.5-28 0-11.5 2-18.5 8.7-31.1 9.4-17.5 13.2-32.6 11.8-46.9-.9-9.3-9.4-43.7-11.4-46.1-2.5-3.1-8-3.6-11.2-1.1zM155.5 51.2c-2.1 1.9-2.7 3.6-3.5 10.5-1.3 10.4-2.8 14.6-9.5 26.3-12.5 22.1-14 39.1-6 67 8.3 28.8 8.3 28.9 11.6 30.6 5.8 3 11.9-.8 11.9-7.4 0-2-2.5-12.4-5.5-23.1-4.8-16.8-5.5-20.5-5.5-28 .1-12.2 1.1-15.7 9.5-32.6 8.1-16.1 10.5-23.6 10.8-33.8.2-5.7-.1-6.9-2.2-9.1-3.1-3.3-8-3.5-11.6-.4zM274.9 86.5c-2.8 1.5-7.9 11-10.4 19.2-4.5 14.6-3.9 28.4 2.1 49.3 7.9 28.2 8.2 28.8 11.5 30.6 5.8 3 11.9-.8 11.9-7.4 0-2-2.5-12.4-5.5-23.1-4.8-16.7-5.5-20.5-5.5-28 0-9.7 1.8-17.7 5.5-25.1 3.9-7.6 3.3-13-1.6-15.5-3.4-1.8-4.7-1.8-8 0zM66 218.3c-5.9 2.9-6.1-3.3 4.9 113.2 5.6 58.8 10.6 110.3 11.2 114.3 4.8 32.9 29.5 58.4 62.6 64.8 11 2.1 133.7 2.1 144.6 0 29.3-5.6 52.8-27.2 60.7-55.8 1.1-4 2.5-13.2 3.2-20.5l1.2-13.3h25.1c28.4 0 34-.9 44.3-6.6 12.4-7 22.5-20.1 25.6-33.4 2.3-9.4 2.3-79.5.1-88.9-4.4-18.4-20.2-34.2-38.6-38.6-4.4-1-11.8-1.5-23.3-1.5h-16.9l.6-7.3c.4-3.9.9-10.4 1.3-14.2.6-6.6.5-7.3-1.8-10-3.4-3.8-8.7-4-12.4-.4-2.5 2.5-2.5 2.8-12.9 113-5.8 60.7-11.2 113-12 116.3-4.9 19-20.3 35.3-40 42.3l-8 2.8h-137l-8.1-2.7c-19.3-6.6-33.2-20.6-38.9-39.3-2.1-6.9-3.8-21.8-12-109-5.2-55.6-9.7-102.7-10-104.8L79 235h88.3c63.4 0 89.3-.3 91.7-1.1 7.2-2.6 7.2-13.3-.1-15.8-4.9-1.7-189.4-1.5-192.9.2zm344.7 53.4c9.9 3.9 18.2 12.9 21.1 22.8.8 2.8 1.2 16.7 1.2 43.3l.1 39.3-2.6 5.7c-4.9 10.7-14.2 17.9-26 20.1-3.2.6-15.5 1.1-27.3 1.1h-21.4l.6-3.7c.3-2.1 3.1-31.5 6.1-65.3 3.1-33.8 5.8-62.6 6.1-63.9l.5-2.3 18.2.4c15.2.4 19.1.8 23.4 2.5z"/><path d="M291.4 218.4c-5.7 2.5-6.4 9.6-1.4 14.1 2.7 2.4 14.9 3.3 20.5 1.5 7.4-2.5 8-12.6.9-15.6-4.2-1.8-15.9-1.7-20 0z"/></svg>